solid OpenSCAD_Model
  facet normal 0 0 -1
    outer loop
      vertex 12.2817 -5.02299 0
      vertex 11.427 -1.76335 0
      vertex 13.7348 -3.68527 0
    endloop
  endfacet
  facet normal 0 -0 -1
    outer loop
      vertex 14.6749 1.9482 0
      vertex 15 0 0
      vertex 12 0 0
    endloop
  endfacet
  facet normal 0 -0 -1
    outer loop
      vertex 12 0 0
      vertex 14.6749 -1.9482 0
      vertex 11.427 -1.76335 0
    endloop
  endfacet
  facet normal 0 0 -1
    outer loop
      vertex 9.92705 2.85316 0
      vertex 14.6749 1.9482 0
      vertex 11.427 1.76335 0
    endloop
  endfacet
  facet normal 0 0 -1
    outer loop
      vertex 10.4729 -5.81639 0
      vertex 9.92705 -2.85316 0
      vertex 12.2817 -5.02299 0
    endloop
  endfacet
  facet normal -0 0 -1
    outer loop
      vertex -14.5271 65.8164 0
      vertex -15.073 62.8532 0
      vertex -16.4955 65.9795 0
    endloop
  endfacet
  facet normal 0 0 -1
    outer loop
      vertex -16.4955 65.9795 0
      vertex -16.9271 62.8532 0
      vertex -18.4271 61.7634 0
    endloop
  endfacet
  facet normal 0 0 -1
    outer loop
      vertex -22.573 61.7634 0
      vertex -16.4955 65.9795 0
      vertex -18.4271 61.7634 0
    endloop
  endfacet
  facet normal 0 0 -1
    outer loop
      vertex -30.2768 57.1443 0
      vertex -30.9182 59.0124 0
      vertex -27.427 58.2366 0
    endloop
  endfacet
  facet normal 0 -0 -1
    outer loop
      vertex -29.0637 64.4143 0
      vertex -27.427 61.7634 0
      vertex -30.2768 62.8557 0
    endloop
  endfacet
  facet normal -0 0 -1
    outer loop
      vertex -28 60 0
      vertex -30.9182 59.0124 0
      vertex -30.9182 60.9876 0
    endloop
  endfacet
  facet normal 0 0 -1
    outer loop
      vertex -5.27684 -2.85568 0
      vertex -2.42705 1.76335 0
      vertex -3 0 0
    endloop
  endfacet
  facet normal 0 -0 -1
    outer loop
      vertex -25.4955 65.9795 0
      vertex -24.073 62.8532 0
      vertex -25.927 62.8532 0
    endloop
  endfacet
  facet normal 0 0 -1
    outer loop
      vertex -30.2768 57.1443 0
      vertex -2.42705 1.76335 0
      vertex -5.27684 -2.85568 0
    endloop
  endfacet
  facet normal 0 0 -1
    outer loop
      vertex -16.9271 57.1468 0
      vertex -15.073 57.1468 0
      vertex -0.927048 2.85316 0
    endloop
  endfacet
  facet normal 0 0 -1
    outer loop
      vertex 8.50452 -5.97949 0
      vertex -0.495468 -5.97949 0
      vertex 0.927048 -2.85316 0
    endloop
  endfacet
  facet normal 0 0 -1
    outer loop
      vertex -0.495468 -5.97949 0
      vertex -0.927048 -2.85316 0
      vertex 0.927048 -2.85316 0
    endloop
  endfacet
  facet normal 0 0 -1
    outer loop
      vertex -0.495468 -5.97949 0
      vertex -2.41017 -5.49463 0
      vertex -0.927048 -2.85316 0
    endloop
  endfacet
  facet normal 0 0 -1
    outer loop
      vertex 2.42705 -1.76335 0
      vertex 3 0 0
      vertex 6.57294 -1.76335 0
    endloop
  endfacet
  facet normal 0 -0 -1
    outer loop
      vertex -25.927 57.1468 0
      vertex -2.42705 1.76335 0
      vertex -30.2768 57.1443 0
    endloop
  endfacet
  facet normal -0 -0 -1
    outer loop
      vertex -19 60 0
      vertex -18.4271 58.2366 0
      vertex -22 60 0
    endloop
  endfacet
  facet normal -0 0 -1
    outer loop
      vertex -25.927 57.1468 0
      vertex -30.2768 57.1443 0
      vertex -27.427 58.2366 0
    endloop
  endfacet
  facet normal 0 0 -1
    outer loop
      vertex -27.427 58.2366 0
      vertex -30.9182 59.0124 0
      vertex -28 60 0
    endloop
  endfacet
  facet normal -0 0 -1
    outer loop
      vertex -27.427 61.7634 0
      vertex -30.9182 60.9876 0
      vertex -30.2768 62.8557 0
    endloop
  endfacet
  facet normal 0 0 -1
    outer loop
      vertex -28 60 0
      vertex -30.9182 60.9876 0
      vertex -27.427 61.7634 0
    endloop
  endfacet
  facet normal 0 0 -1
    outer loop
      vertex -25.927 62.8532 0
      vertex -29.0637 64.4143 0
      vertex -27.4102 65.4946 0
    endloop
  endfacet
  facet normal 0 0 -1
    outer loop
      vertex -27.427 61.7634 0
      vertex -29.0637 64.4143 0
      vertex -25.927 62.8532 0
    endloop
  endfacet
  facet normal 0 0 -1
    outer loop
      vertex -25.927 62.8532 0
      vertex -27.4102 65.4946 0
      vertex -25.4955 65.9795 0
    endloop
  endfacet
  facet normal 0 0 -1
    outer loop
      vertex -24.073 62.8532 0
      vertex -25.4955 65.9795 0
      vertex -16.4955 65.9795 0
    endloop
  endfacet
  facet normal 0 0 -1
    outer loop
      vertex -22.573 61.7634 0
      vertex -24.073 62.8532 0
      vertex -16.4955 65.9795 0
    endloop
  endfacet
  facet normal -0 0 -1
    outer loop
      vertex -12.7183 65.023 0
      vertex -15.073 62.8532 0
      vertex -14.5271 65.8164 0
    endloop
  endfacet
  facet normal 0 0 -1
    outer loop
      vertex -24.073 57.1468 0
      vertex -18.4271 58.2366 0
      vertex -16.9271 57.1468 0
    endloop
  endfacet
  facet normal 0 -0 -1
    outer loop
      vertex -22.573 58.2366 0
      vertex -18.4271 58.2366 0
      vertex -24.073 57.1468 0
    endloop
  endfacet
  facet normal -0 -0 -1
    outer loop
      vertex -16.9271 57.1468 0
      vertex -2.42705 1.76335 0
      vertex -24.073 57.1468 0
    endloop
  endfacet
  facet normal 0 0 -1
    outer loop
      vertex -12.7183 65.023 0
      vertex -13.573 61.7634 0
      vertex -15.073 62.8532 0
    endloop
  endfacet
  facet normal -0 -0 -1
    outer loop
      vertex -24.073 57.1468 0
      vertex -2.42705 1.76335 0
      vertex -25.927 57.1468 0
    endloop
  endfacet
  facet normal 0 -0 -1
    outer loop
      vertex -11.2652 63.6853 0
      vertex -10.3251 61.9482 0
      vertex -13.573 61.7634 0
    endloop
  endfacet
  facet normal 0 -0 -1
    outer loop
      vertex -22 60 0
      vertex -18.4271 58.2366 0
      vertex -22.573 58.2366 0
    endloop
  endfacet
  facet normal 0 0 -1
    outer loop
      vertex -18.4271 61.7634 0
      vertex -19 60 0
      vertex -22 60 0
    endloop
  endfacet
  facet normal 0 0 -1
    outer loop
      vertex -22.573 61.7634 0
      vertex -18.4271 61.7634 0
      vertex -22 60 0
    endloop
  endfacet
  facet normal 0 0 -1
    outer loop
      vertex -15.073 62.8532 0
      vertex -16.9271 62.8532 0
      vertex -16.4955 65.9795 0
    endloop
  endfacet
  facet normal 0 -0 -1
    outer loop
      vertex -12.7183 65.023 0
      vertex -11.2652 63.6853 0
      vertex -13.573 61.7634 0
    endloop
  endfacet
  facet normal 0 0 -1
    outer loop
      vertex -13.573 61.7634 0
      vertex -10.3251 61.9482 0
      vertex -13 60 0
    endloop
  endfacet
  facet normal 0 0 -1
    outer loop
      vertex 8.07294 2.85316 0
      vertex -13.573 58.2366 0
      vertex 9.92705 2.85316 0
    endloop
  endfacet
  facet normal 0 0 -1
    outer loop
      vertex -13.573 58.2366 0
      vertex -13 60 0
      vertex -10.3251 61.9482 0
    endloop
  endfacet
  facet normal 0 0 -1
    outer loop
      vertex 8.50452 -5.97949 0
      vertex 0.927048 -2.85316 0
      vertex 2.42705 -1.76335 0
    endloop
  endfacet
  facet normal 0 0 -1
    outer loop
      vertex -2.41017 -5.49463 0
      vertex -4.06367 -4.41434 0
      vertex -0.927048 -2.85316 0
    endloop
  endfacet
  facet normal -0 0 -1
    outer loop
      vertex -0.927048 -2.85316 0
      vertex -4.06367 -4.41434 0
      vertex -2.42705 -1.76335 0
    endloop
  endfacet
  facet normal 0 0 -1
    outer loop
      vertex -5.27684 -2.85568 0
      vertex -2.42705 -1.76335 0
      vertex -4.06367 -4.41434 0
    endloop
  endfacet
  facet normal 0 0 -1
    outer loop
      vertex -5.27684 -2.85568 0
      vertex -3 0 0
      vertex -2.42705 -1.76335 0
    endloop
  endfacet
  facet normal 0 0 -1
    outer loop
      vertex -2.42705 1.76335 0
      vertex -16.9271 57.1468 0
      vertex -0.927048 2.85316 0
    endloop
  endfacet
  facet normal 0 0 -1
    outer loop
      vertex -0.927048 2.85316 0
      vertex -15.073 57.1468 0
      vertex 0.927048 2.85316 0
    endloop
  endfacet
  facet normal 0 0 -1
    outer loop
      vertex 6.57294 1.76335 0
      vertex 0.927048 2.85316 0
      vertex 8.07294 2.85316 0
    endloop
  endfacet
  facet normal 0 0 -1
    outer loop
      vertex 0.927048 2.85316 0
      vertex -15.073 57.1468 0
      vertex -13.573 58.2366 0
    endloop
  endfacet
  facet normal 0 0 -1
    outer loop
      vertex 6.57294 1.76335 0
      vertex 2.42705 1.76335 0
      vertex 0.927048 2.85316 0
    endloop
  endfacet
  facet normal 0 0 -1
    outer loop
      vertex 2.42705 -1.76335 0
      vertex 6.57294 -1.76335 0
      vertex 8.50452 -5.97949 0
    endloop
  endfacet
  facet normal 0 0 -1
    outer loop
      vertex 8.50452 -5.97949 0
      vertex 6.57294 -1.76335 0
      vertex 8.07294 -2.85316 0
    endloop
  endfacet
  facet normal 0 0 -1
    outer loop
      vertex 8.50452 -5.97949 0
      vertex 9.92705 -2.85316 0
      vertex 10.4729 -5.81639 0
    endloop
  endfacet
  facet normal 0 0 -1
    outer loop
      vertex 3 0 0
      vertex 6.57294 1.76335 0
      vertex 6 0 0
    endloop
  endfacet
  facet normal 0 0 -1
    outer loop
      vertex 8.50452 -5.97949 0
      vertex 8.07294 -2.85316 0
      vertex 9.92705 -2.85316 0
    endloop
  endfacet
  facet normal 0 0 -1
    outer loop
      vertex 14.6749 1.9482 0
      vertex 12 0 0
      vertex 11.427 1.76335 0
    endloop
  endfacet
  facet normal 0 0 -1
    outer loop
      vertex 6.57294 -1.76335 0
      vertex 3 0 0
      vertex 6 0 0
    endloop
  endfacet
  facet normal 0 0 -1
    outer loop
      vertex 3 0 0
      vertex 2.42705 1.76335 0
      vertex 6.57294 1.76335 0
    endloop
  endfacet
  facet normal 0 0 -1
    outer loop
      vertex 8.07294 2.85316 0
      vertex 0.927048 2.85316 0
      vertex -13.573 58.2366 0
    endloop
  endfacet
  facet normal 0 0 -1
    outer loop
      vertex 14.6749 1.9482 0
      vertex 9.92705 2.85316 0
      vertex -10.3251 61.9482 0
    endloop
  endfacet
  facet normal 0 0 -1
    outer loop
      vertex 9.92705 2.85316 0
      vertex -13.573 58.2366 0
      vertex -10.3251 61.9482 0
    endloop
  endfacet
  facet normal -0 0 -1
    outer loop
      vertex 15 0 0
      vertex 14.6749 -1.9482 0
      vertex 12 0 0
    endloop
  endfacet
  facet normal -0 0 -1
    outer loop
      vertex 14.6749 -1.9482 0
      vertex 13.7348 -3.68527 0
      vertex 11.427 -1.76335 0
    endloop
  endfacet
  facet normal 0 -0 -1
    outer loop
      vertex 11.427 -1.76335 0
      vertex 12.2817 -5.02299 0
      vertex 9.92705 -2.85316 0
    endloop
  endfacet
  facet normal 0 0 1
    outer loop
      vertex 13.7348 -3.68527 3
      vertex 11.427 -1.76335 3
      vertex 12.2817 -5.02299 3
    endloop
  endfacet
  facet normal 0 0 1
    outer loop
      vertex 12 0 3
      vertex 15 0 3
      vertex 14.6749 1.9482 3
    endloop
  endfacet
  facet normal -0 0 1
    outer loop
      vertex 11.427 -1.76335 3
      vertex 14.6749 -1.9482 3
      vertex 12 0 3
    endloop
  endfacet
  facet normal 0 -0 1
    outer loop
      vertex 11.427 1.76335 3
      vertex 14.6749 1.9482 3
      vertex 9.92705 2.85316 3
    endloop
  endfacet
  facet normal 0 0 1
    outer loop
      vertex 12.2817 -5.02299 3
      vertex 9.92705 -2.85316 3
      vertex 10.4729 -5.81639 3
    endloop
  endfacet
  facet normal 0 0 1
    outer loop
      vertex -16.4955 65.9795 3
      vertex -15.073 62.8532 3
      vertex -14.5271 65.8164 3
    endloop
  endfacet
  facet normal 0 0 1
    outer loop
      vertex -18.4271 61.7634 3
      vertex -16.9271 62.8532 3
      vertex -16.4955 65.9795 3
    endloop
  endfacet
  facet normal 0 -0 1
    outer loop
      vertex -18.4271 61.7634 3
      vertex -16.4955 65.9795 3
      vertex -22.573 61.7634 3
    endloop
  endfacet
  facet normal 0 0 1
    outer loop
      vertex -27.427 58.2366 3
      vertex -30.9182 59.0124 3
      vertex -30.2768 57.1443 3
    endloop
  endfacet
  facet normal -0 0 1
    outer loop
      vertex -30.2768 62.8557 3
      vertex -27.427 61.7634 3
      vertex -29.0637 64.4143 3
    endloop
  endfacet
  facet normal 0 0 1
    outer loop
      vertex -30.9182 60.9876 3
      vertex -30.9182 59.0124 3
      vertex -28 60 3
    endloop
  endfacet
  facet normal 0 -0 1
    outer loop
      vertex -3 0 3
      vertex -2.42705 1.76335 3
      vertex -5.27684 -2.85568 3
    endloop
  endfacet
  facet normal 0 0 1
    outer loop
      vertex -25.927 62.8532 3
      vertex -24.073 62.8532 3
      vertex -25.4955 65.9795 3
    endloop
  endfacet
  facet normal 0 -0 1
    outer loop
      vertex -5.27684 -2.85568 3
      vertex -2.42705 1.76335 3
      vertex -30.2768 57.1443 3
    endloop
  endfacet
  facet normal 0 0 1
    outer loop
      vertex -0.927048 2.85316 3
      vertex -15.073 57.1468 3
      vertex -16.9271 57.1468 3
    endloop
  endfacet
  facet normal 0 0 1
    outer loop
      vertex 0.927048 -2.85316 3
      vertex -0.495468 -5.97949 3
      vertex 8.50452 -5.97949 3
    endloop
  endfacet
  facet normal 0 0 1
    outer loop
      vertex 0.927048 -2.85316 3
      vertex -0.927048 -2.85316 3
      vertex -0.495468 -5.97949 3
    endloop
  endfacet
  facet normal 0 0 1
    outer loop
      vertex -0.927048 -2.85316 3
      vertex -2.41017 -5.49463 3
      vertex -0.495468 -5.97949 3
    endloop
  endfacet
  facet normal 0 0 1
    outer loop
      vertex 6.57294 -1.76335 3
      vertex 3 0 3
      vertex 2.42705 -1.76335 3
    endloop
  endfacet
  facet normal -0 0 1
    outer loop
      vertex -30.2768 57.1443 3
      vertex -2.42705 1.76335 3
      vertex -25.927 57.1468 3
    endloop
  endfacet
  facet normal -0 0 1
    outer loop
      vertex -22 60 3
      vertex -18.4271 58.2366 3
      vertex -19 60 3
    endloop
  endfacet
  facet normal 0 0 1
    outer loop
      vertex -27.427 58.2366 3
      vertex -30.2768 57.1443 3
      vertex -25.927 57.1468 3
    endloop
  endfacet
  facet normal 0 0 1
    outer loop
      vertex -28 60 3
      vertex -30.9182 59.0124 3
      vertex -27.427 58.2366 3
    endloop
  endfacet
  facet normal 0 0 1
    outer loop
      vertex -30.2768 62.8557 3
      vertex -30.9182 60.9876 3
      vertex -27.427 61.7634 3
    endloop
  endfacet
  facet normal 0 0 1
    outer loop
      vertex -27.427 61.7634 3
      vertex -30.9182 60.9876 3
      vertex -28 60 3
    endloop
  endfacet
  facet normal 0 0 1
    outer loop
      vertex -27.4102 65.4946 3
      vertex -29.0637 64.4143 3
      vertex -25.927 62.8532 3
    endloop
  endfacet
  facet normal 0 0 1
    outer loop
      vertex -25.927 62.8532 3
      vertex -29.0637 64.4143 3
      vertex -27.427 61.7634 3
    endloop
  endfacet
  facet normal 0 0 1
    outer loop
      vertex -25.4955 65.9795 3
      vertex -27.4102 65.4946 3
      vertex -25.927 62.8532 3
    endloop
  endfacet
  facet normal 0 0 1
    outer loop
      vertex -16.4955 65.9795 3
      vertex -25.4955 65.9795 3
      vertex -24.073 62.8532 3
    endloop
  endfacet
  facet normal 0 0 1
    outer loop
      vertex -16.4955 65.9795 3
      vertex -24.073 62.8532 3
      vertex -22.573 61.7634 3
    endloop
  endfacet
  facet normal 0 0 1
    outer loop
      vertex -14.5271 65.8164 3
      vertex -15.073 62.8532 3
      vertex -12.7183 65.023 3
    endloop
  endfacet
  facet normal 0 0 1
    outer loop
      vertex -16.9271 57.1468 3
      vertex -18.4271 58.2366 3
      vertex -24.073 57.1468 3
    endloop
  endfacet
  facet normal 0 0 1
    outer loop
      vertex -24.073 57.1468 3
      vertex -18.4271 58.2366 3
      vertex -22.573 58.2366 3
    endloop
  endfacet
  facet normal -0 0 1
    outer loop
      vertex -24.073 57.1468 3
      vertex -2.42705 1.76335 3
      vertex -16.9271 57.1468 3
    endloop
  endfacet
  facet normal -0 0 1
    outer loop
      vertex -15.073 62.8532 3
      vertex -13.573 61.7634 3
      vertex -12.7183 65.023 3
    endloop
  endfacet
  facet normal -0 0 1
    outer loop
      vertex -25.927 57.1468 3
      vertex -2.42705 1.76335 3
      vertex -24.073 57.1468 3
    endloop
  endfacet
  facet normal 0 0 1
    outer loop
      vertex -13.573 61.7634 3
      vertex -10.3251 61.9482 3
      vertex -11.2652 63.6853 3
    endloop
  endfacet
  facet normal 0 0 1
    outer loop
      vertex -22.573 58.2366 3
      vertex -18.4271 58.2366 3
      vertex -22 60 3
    endloop
  endfacet
  facet normal 0 0 1
    outer loop
      vertex -22 60 3
      vertex -19 60 3
      vertex -18.4271 61.7634 3
    endloop
  endfacet
  facet normal 0 -0 1
    outer loop
      vertex -22 60 3
      vertex -18.4271 61.7634 3
      vertex -22.573 61.7634 3
    endloop
  endfacet
  facet normal 0 0 1
    outer loop
      vertex -16.4955 65.9795 3
      vertex -16.9271 62.8532 3
      vertex -15.073 62.8532 3
    endloop
  endfacet
  facet normal 0 0 1
    outer loop
      vertex -13.573 61.7634 3
      vertex -11.2652 63.6853 3
      vertex -12.7183 65.023 3
    endloop
  endfacet
  facet normal 0 -0 1
    outer loop
      vertex -13 60 3
      vertex -10.3251 61.9482 3
      vertex -13.573 61.7634 3
    endloop
  endfacet
  facet normal 0 0 1
    outer loop
      vertex 9.92705 2.85316 3
      vertex -13.573 58.2366 3
      vertex 8.07294 2.85316 3
    endloop
  endfacet
  facet normal 0 0 1
    outer loop
      vertex -10.3251 61.9482 3
      vertex -13 60 3
      vertex -13.573 58.2366 3
    endloop
  endfacet
  facet normal 0 0 1
    outer loop
      vertex 2.42705 -1.76335 3
      vertex 0.927048 -2.85316 3
      vertex 8.50452 -5.97949 3
    endloop
  endfacet
  facet normal 0 0 1
    outer loop
      vertex -0.927048 -2.85316 3
      vertex -4.06367 -4.41434 3
      vertex -2.41017 -5.49463 3
    endloop
  endfacet
  facet normal 0 0 1
    outer loop
      vertex -2.42705 -1.76335 3
      vertex -4.06367 -4.41434 3
      vertex -0.927048 -2.85316 3
    endloop
  endfacet
  facet normal 0 -0 1
    outer loop
      vertex -4.06367 -4.41434 3
      vertex -2.42705 -1.76335 3
      vertex -5.27684 -2.85568 3
    endloop
  endfacet
  facet normal 0 0 1
    outer loop
      vertex -2.42705 -1.76335 3
      vertex -3 0 3
      vertex -5.27684 -2.85568 3
    endloop
  endfacet
  facet normal 0 0 1
    outer loop
      vertex -0.927048 2.85316 3
      vertex -16.9271 57.1468 3
      vertex -2.42705 1.76335 3
    endloop
  endfacet
  facet normal 0 0 1
    outer loop
      vertex 0.927048 2.85316 3
      vertex -15.073 57.1468 3
      vertex -0.927048 2.85316 3
    endloop
  endfacet
  facet normal 0 0 1
    outer loop
      vertex 8.07294 2.85316 3
      vertex 0.927048 2.85316 3
      vertex 6.57294 1.76335 3
    endloop
  endfacet
  facet normal 0 0 1
    outer loop
      vertex -13.573 58.2366 3
      vertex -15.073 57.1468 3
      vertex 0.927048 2.85316 3
    endloop
  endfacet
  facet normal 0 0 1
    outer loop
      vertex 0.927048 2.85316 3
      vertex 2.42705 1.76335 3
      vertex 6.57294 1.76335 3
    endloop
  endfacet
  facet normal 0 0 1
    outer loop
      vertex 8.50452 -5.97949 3
      vertex 6.57294 -1.76335 3
      vertex 2.42705 -1.76335 3
    endloop
  endfacet
  facet normal 0 0 1
    outer loop
      vertex 8.07294 -2.85316 3
      vertex 6.57294 -1.76335 3
      vertex 8.50452 -5.97949 3
    endloop
  endfacet
  facet normal 0 0 1
    outer loop
      vertex 10.4729 -5.81639 3
      vertex 9.92705 -2.85316 3
      vertex 8.50452 -5.97949 3
    endloop
  endfacet
  facet normal 0 -0 1
    outer loop
      vertex 6 0 3
      vertex 6.57294 1.76335 3
      vertex 3 0 3
    endloop
  endfacet
  facet normal 0 0 1
    outer loop
      vertex 9.92705 -2.85316 3
      vertex 8.07294 -2.85316 3
      vertex 8.50452 -5.97949 3
    endloop
  endfacet
  facet normal -0 0 1
    outer loop
      vertex 11.427 1.76335 3
      vertex 12 0 3
      vertex 14.6749 1.9482 3
    endloop
  endfacet
  facet normal 0 0 1
    outer loop
      vertex 6 0 3
      vertex 3 0 3
      vertex 6.57294 -1.76335 3
    endloop
  endfacet
  facet normal 0 0 1
    outer loop
      vertex 6.57294 1.76335 3
      vertex 2.42705 1.76335 3
      vertex 3 0 3
    endloop
  endfacet
  facet normal 0 0 1
    outer loop
      vertex -13.573 58.2366 3
      vertex 0.927048 2.85316 3
      vertex 8.07294 2.85316 3
    endloop
  endfacet
  facet normal 0 0 1
    outer loop
      vertex -10.3251 61.9482 3
      vertex 9.92705 2.85316 3
      vertex 14.6749 1.9482 3
    endloop
  endfacet
  facet normal 0 0 1
    outer loop
      vertex -10.3251 61.9482 3
      vertex -13.573 58.2366 3
      vertex 9.92705 2.85316 3
    endloop
  endfacet
  facet normal -0 0 1
    outer loop
      vertex 12 0 3
      vertex 14.6749 -1.9482 3
      vertex 15 0 3
    endloop
  endfacet
  facet normal 0 0 1
    outer loop
      vertex 11.427 -1.76335 3
      vertex 13.7348 -3.68527 3
      vertex 14.6749 -1.9482 3
    endloop
  endfacet
  facet normal -0 0 1
    outer loop
      vertex 9.92705 -2.85316 3
      vertex 12.2817 -5.02299 3
      vertex 11.427 -1.76335 3
    endloop
  endfacet
  facet normal 0.401692 -0.915775 0
    outer loop
      vertex 12.2817 -5.02299 0
      vertex 10.4729 -5.81639 3
      vertex 10.4729 -5.81639 0
    endloop
  endfacet
  facet normal 0.401692 -0.915775 0
    outer loop
      vertex 12.2817 -5.02299 0
      vertex 12.2817 -5.02299 3
      vertex 10.4729 -5.81639 3
    endloop
  endfacet
  facet normal 0.677281 -0.735724 0
    outer loop
      vertex 13.7348 -3.68527 0
      vertex 12.2817 -5.02299 3
      vertex 12.2817 -5.02299 0
    endloop
  endfacet
  facet normal 0.677281 -0.735724 0
    outer loop
      vertex 13.7348 -3.68527 0
      vertex 13.7348 -3.68527 3
      vertex 12.2817 -5.02299 3
    endloop
  endfacet
  facet normal 0.879473 -0.475949 0
    outer loop
      vertex 14.6749 -1.9482 0
      vertex 13.7348 -3.68527 3
      vertex 13.7348 -3.68527 0
    endloop
  endfacet
  facet normal 0.879473 -0.475949 0
    outer loop
      vertex 14.6749 -1.9482 0
      vertex 14.6749 -1.9482 3
      vertex 13.7348 -3.68527 3
    endloop
  endfacet
  facet normal 0.986361 -0.164598 0
    outer loop
      vertex 15 0 0
      vertex 14.6749 -1.9482 3
      vertex 14.6749 -1.9482 0
    endloop
  endfacet
  facet normal 0.986361 -0.164598 0
    outer loop
      vertex 15 0 0
      vertex 15 0 3
      vertex 14.6749 -1.9482 3
    endloop
  endfacet
  facet normal 0.986361 0.164598 0
    outer loop
      vertex 14.6749 1.9482 0
      vertex 15 0 3
      vertex 15 0 0
    endloop
  endfacet
  facet normal 0.986361 0.164598 -0
    outer loop
      vertex 14.6749 1.9482 0
      vertex 14.6749 1.9482 3
      vertex 15 0 3
    endloop
  endfacet
  facet normal 0.923077 0.384615 0
    outer loop
      vertex -10.3251 61.9482 0
      vertex 14.6749 1.9482 3
      vertex 14.6749 1.9482 0
    endloop
  endfacet
  facet normal 0.923077 0.384615 -0
    outer loop
      vertex -10.3251 61.9482 0
      vertex -10.3251 61.9482 3
      vertex 14.6749 1.9482 3
    endloop
  endfacet
  facet normal 0.879473 0.475949 0
    outer loop
      vertex -11.2652 63.6853 0
      vertex -10.3251 61.9482 3
      vertex -10.3251 61.9482 0
    endloop
  endfacet
  facet normal 0.879473 0.475949 -0
    outer loop
      vertex -11.2652 63.6853 0
      vertex -11.2652 63.6853 3
      vertex -10.3251 61.9482 3
    endloop
  endfacet
  facet normal 0.677281 0.735724 0
    outer loop
      vertex -12.7183 65.023 0
      vertex -11.2652 63.6853 3
      vertex -11.2652 63.6853 0
    endloop
  endfacet
  facet normal 0.677281 0.735724 -0
    outer loop
      vertex -12.7183 65.023 0
      vertex -12.7183 65.023 3
      vertex -11.2652 63.6853 3
    endloop
  endfacet
  facet normal 0.401692 0.915775 0
    outer loop
      vertex -14.5271 65.8164 0
      vertex -12.7183 65.023 3
      vertex -12.7183 65.023 0
    endloop
  endfacet
  facet normal 0.401692 0.915775 -0
    outer loop
      vertex -14.5271 65.8164 0
      vertex -14.5271 65.8164 3
      vertex -12.7183 65.023 3
    endloop
  endfacet
  facet normal 0.0825775 0.996585 0
    outer loop
      vertex -16.4955 65.9795 0
      vertex -14.5271 65.8164 3
      vertex -14.5271 65.8164 0
    endloop
  endfacet
  facet normal 0.0825775 0.996585 -0
    outer loop
      vertex -16.4955 65.9795 0
      vertex -16.4955 65.9795 3
      vertex -14.5271 65.8164 3
    endloop
  endfacet
  facet normal 0 1 0
    outer loop
      vertex -25.4955 65.9795 0
      vertex -16.4955 65.9795 3
      vertex -16.4955 65.9795 0
    endloop
  endfacet
  facet normal 0 1 0
    outer loop
      vertex -25.4955 65.9795 0
      vertex -25.4955 65.9795 3
      vertex -16.4955 65.9795 3
    endloop
  endfacet
  facet normal -0.245483 0.969401 0
    outer loop
      vertex -27.4102 65.4946 0
      vertex -25.4955 65.9795 3
      vertex -25.4955 65.9795 0
    endloop
  endfacet
  facet normal -0.245483 0.969401 0
    outer loop
      vertex -27.4102 65.4946 0
      vertex -27.4102 65.4946 3
      vertex -25.4955 65.9795 3
    endloop
  endfacet
  facet normal -0.54695 0.837166 0
    outer loop
      vertex -29.0637 64.4143 0
      vertex -27.4102 65.4946 3
      vertex -27.4102 65.4946 0
    endloop
  endfacet
  facet normal -0.54695 0.837166 0
    outer loop
      vertex -29.0637 64.4143 0
      vertex -29.0637 64.4143 3
      vertex -27.4102 65.4946 3
    endloop
  endfacet
  facet normal -0.789137 0.614218 0
    outer loop
      vertex -30.2768 62.8557 0
      vertex -29.0637 64.4143 3
      vertex -29.0637 64.4143 0
    endloop
  endfacet
  facet normal -0.789137 0.614218 0
    outer loop
      vertex -30.2768 62.8557 0
      vertex -30.2768 62.8557 3
      vertex -29.0637 64.4143 3
    endloop
  endfacet
  facet normal -0.945817 0.3247 0
    outer loop
      vertex -30.9182 60.9876 0
      vertex -30.2768 62.8557 3
      vertex -30.2768 62.8557 0
    endloop
  endfacet
  facet normal -0.945817 0.3247 0
    outer loop
      vertex -30.9182 60.9876 0
      vertex -30.9182 60.9876 3
      vertex -30.2768 62.8557 3
    endloop
  endfacet
  facet normal -1 0 0
    outer loop
      vertex -30.9182 59.0124 0
      vertex -30.9182 60.9876 3
      vertex -30.9182 60.9876 0
    endloop
  endfacet
  facet normal -1 0 0
    outer loop
      vertex -30.9182 59.0124 0
      vertex -30.9182 59.0124 3
      vertex -30.9182 60.9876 3
    endloop
  endfacet
  facet normal -0.945817 -0.3247 0
    outer loop
      vertex -30.2768 57.1443 0
      vertex -30.9182 59.0124 3
      vertex -30.9182 59.0124 0
    endloop
  endfacet
  facet normal -0.945817 -0.3247 0
    outer loop
      vertex -30.2768 57.1443 0
      vertex -30.2768 57.1443 3
      vertex -30.9182 59.0124 3
    endloop
  endfacet
  facet normal -0.923077 -0.384615 0
    outer loop
      vertex -5.27684 -2.85568 0
      vertex -30.2768 57.1443 3
      vertex -30.2768 57.1443 0
    endloop
  endfacet
  facet normal -0.923077 -0.384615 0
    outer loop
      vertex -5.27684 -2.85568 0
      vertex -5.27684 -2.85568 3
      vertex -30.2768 57.1443 3
    endloop
  endfacet
  facet normal -0.789137 -0.614218 0
    outer loop
      vertex -4.06367 -4.41434 0
      vertex -5.27684 -2.85568 3
      vertex -5.27684 -2.85568 0
    endloop
  endfacet
  facet normal -0.789137 -0.614218 0
    outer loop
      vertex -4.06367 -4.41434 0
      vertex -4.06367 -4.41434 3
      vertex -5.27684 -2.85568 3
    endloop
  endfacet
  facet normal -0.54695 -0.837166 0
    outer loop
      vertex -2.41017 -5.49463 0
      vertex -4.06367 -4.41434 3
      vertex -4.06367 -4.41434 0
    endloop
  endfacet
  facet normal -0.54695 -0.837166 0
    outer loop
      vertex -2.41017 -5.49463 0
      vertex -2.41017 -5.49463 3
      vertex -4.06367 -4.41434 3
    endloop
  endfacet
  facet normal -0.245483 -0.969401 0
    outer loop
      vertex -0.495468 -5.97949 0
      vertex -2.41017 -5.49463 3
      vertex -2.41017 -5.49463 0
    endloop
  endfacet
  facet normal -0.245483 -0.969401 0
    outer loop
      vertex -0.495468 -5.97949 0
      vertex -0.495468 -5.97949 3
      vertex -2.41017 -5.49463 3
    endloop
  endfacet
  facet normal 0 -1 0
    outer loop
      vertex 8.50452 -5.97949 0
      vertex -0.495468 -5.97949 3
      vertex -0.495468 -5.97949 0
    endloop
  endfacet
  facet normal 0 -1 0
    outer loop
      vertex 8.50452 -5.97949 0
      vertex 8.50452 -5.97949 3
      vertex -0.495468 -5.97949 3
    endloop
  endfacet
  facet normal 0.0825775 -0.996585 0
    outer loop
      vertex 10.4729 -5.81639 0
      vertex 8.50452 -5.97949 3
      vertex 8.50452 -5.97949 0
    endloop
  endfacet
  facet normal 0.0825775 -0.996585 0
    outer loop
      vertex 10.4729 -5.81639 0
      vertex 10.4729 -5.81639 3
      vertex 8.50452 -5.97949 3
    endloop
  endfacet
  facet normal 0.587785 0.809017 -0
    outer loop
      vertex -27.427 58.2366 0
      vertex -27.427 58.2366 3
      vertex -25.927 57.1468 0
    endloop
  endfacet
  facet normal 0.587785 0.809017 0
    outer loop
      vertex -25.927 57.1468 3
      vertex -25.927 57.1468 0
      vertex -27.427 58.2366 3
    endloop
  endfacet
  facet normal 0.951056 0.309019 -0
    outer loop
      vertex -28 60 0
      vertex -28 60 3
      vertex -27.427 58.2366 0
    endloop
  endfacet
  facet normal 0.951056 0.309019 0
    outer loop
      vertex -27.427 58.2366 3
      vertex -27.427 58.2366 0
      vertex -28 60 3
    endloop
  endfacet
  facet normal 0.951056 -0.309019 0
    outer loop
      vertex -27.427 61.7634 0
      vertex -27.427 61.7634 3
      vertex -28 60 0
    endloop
  endfacet
  facet normal 0.951056 -0.309019 0
    outer loop
      vertex -28 60 3
      vertex -28 60 0
      vertex -27.427 61.7634 3
    endloop
  endfacet
  facet normal 0.587785 -0.809017 0
    outer loop
      vertex -25.927 62.8532 0
      vertex -25.927 62.8532 3
      vertex -27.427 61.7634 0
    endloop
  endfacet
  facet normal 0.587785 -0.809017 0
    outer loop
      vertex -27.427 61.7634 3
      vertex -27.427 61.7634 0
      vertex -25.927 62.8532 3
    endloop
  endfacet
  facet normal 0 -1 0
    outer loop
      vertex -24.073 62.8532 0
      vertex -24.073 62.8532 3
      vertex -25.927 62.8532 0
    endloop
  endfacet
  facet normal 0 -1 0
    outer loop
      vertex -25.927 62.8532 3
      vertex -25.927 62.8532 0
      vertex -24.073 62.8532 3
    endloop
  endfacet
  facet normal -0.587785 -0.809017 0
    outer loop
      vertex -22.573 61.7634 0
      vertex -22.573 61.7634 3
      vertex -24.073 62.8532 0
    endloop
  endfacet
  facet normal -0.587785 -0.809017 -0
    outer loop
      vertex -24.073 62.8532 3
      vertex -24.073 62.8532 0
      vertex -22.573 61.7634 3
    endloop
  endfacet
  facet normal -0.951056 -0.309019 0
    outer loop
      vertex -22 60 0
      vertex -22 60 3
      vertex -22.573 61.7634 0
    endloop
  endfacet
  facet normal -0.951056 -0.309019 -0
    outer loop
      vertex -22.573 61.7634 3
      vertex -22.573 61.7634 0
      vertex -22 60 3
    endloop
  endfacet
  facet normal -0.951056 0.309019 0
    outer loop
      vertex -22.573 58.2366 0
      vertex -22.573 58.2366 3
      vertex -22 60 0
    endloop
  endfacet
  facet normal -0.951056 0.309019 0
    outer loop
      vertex -22 60 3
      vertex -22 60 0
      vertex -22.573 58.2366 3
    endloop
  endfacet
  facet normal -0.587785 0.809017 0
    outer loop
      vertex -24.073 57.1468 0
      vertex -24.073 57.1468 3
      vertex -22.573 58.2366 0
    endloop
  endfacet
  facet normal -0.587785 0.809017 0
    outer loop
      vertex -22.573 58.2366 3
      vertex -22.573 58.2366 0
      vertex -24.073 57.1468 3
    endloop
  endfacet
  facet normal 0 1 0
    outer loop
      vertex -25.927 57.1468 0
      vertex -25.927 57.1468 3
      vertex -24.073 57.1468 0
    endloop
  endfacet
  facet normal 0 1 0
    outer loop
      vertex -24.073 57.1468 3
      vertex -24.073 57.1468 0
      vertex -25.927 57.1468 3
    endloop
  endfacet
  facet normal 0.587785 0.809017 -0
    outer loop
      vertex -18.4271 58.2366 0
      vertex -18.4271 58.2366 3
      vertex -16.9271 57.1468 0
    endloop
  endfacet
  facet normal 0.587785 0.809017 0
    outer loop
      vertex -16.9271 57.1468 3
      vertex -16.9271 57.1468 0
      vertex -18.4271 58.2366 3
    endloop
  endfacet
  facet normal 0.951058 0.309012 -0
    outer loop
      vertex -19 60 0
      vertex -19 60 3
      vertex -18.4271 58.2366 0
    endloop
  endfacet
  facet normal 0.951058 0.309012 0
    outer loop
      vertex -18.4271 58.2366 3
      vertex -18.4271 58.2366 0
      vertex -19 60 3
    endloop
  endfacet
  facet normal 0.951058 -0.309012 0
    outer loop
      vertex -18.4271 61.7634 0
      vertex -18.4271 61.7634 3
      vertex -19 60 0
    endloop
  endfacet
  facet normal 0.951058 -0.309012 0
    outer loop
      vertex -19 60 3
      vertex -19 60 0
      vertex -18.4271 61.7634 3
    endloop
  endfacet
  facet normal 0.587785 -0.809017 0
    outer loop
      vertex -16.9271 62.8532 0
      vertex -16.9271 62.8532 3
      vertex -18.4271 61.7634 0
    endloop
  endfacet
  facet normal 0.587785 -0.809017 0
    outer loop
      vertex -18.4271 61.7634 3
      vertex -18.4271 61.7634 0
      vertex -16.9271 62.8532 3
    endloop
  endfacet
  facet normal 0 -1 0
    outer loop
      vertex -15.073 62.8532 0
      vertex -15.073 62.8532 3
      vertex -16.9271 62.8532 0
    endloop
  endfacet
  facet normal 0 -1 0
    outer loop
      vertex -16.9271 62.8532 3
      vertex -16.9271 62.8532 0
      vertex -15.073 62.8532 3
    endloop
  endfacet
  facet normal -0.587785 -0.809017 0
    outer loop
      vertex -13.573 61.7634 0
      vertex -13.573 61.7634 3
      vertex -15.073 62.8532 0
    endloop
  endfacet
  facet normal -0.587785 -0.809017 -0
    outer loop
      vertex -15.073 62.8532 3
      vertex -15.073 62.8532 0
      vertex -13.573 61.7634 3
    endloop
  endfacet
  facet normal -0.951056 -0.309019 0
    outer loop
      vertex -13 60 0
      vertex -13 60 3
      vertex -13.573 61.7634 0
    endloop
  endfacet
  facet normal -0.951056 -0.309019 -0
    outer loop
      vertex -13.573 61.7634 3
      vertex -13.573 61.7634 0
      vertex -13 60 3
    endloop
  endfacet
  facet normal -0.951056 0.309019 0
    outer loop
      vertex -13.573 58.2366 0
      vertex -13.573 58.2366 3
      vertex -13 60 0
    endloop
  endfacet
  facet normal -0.951056 0.309019 0
    outer loop
      vertex -13 60 3
      vertex -13 60 0
      vertex -13.573 58.2366 3
    endloop
  endfacet
  facet normal -0.587785 0.809017 0
    outer loop
      vertex -15.073 57.1468 0
      vertex -15.073 57.1468 3
      vertex -13.573 58.2366 0
    endloop
  endfacet
  facet normal -0.587785 0.809017 0
    outer loop
      vertex -13.573 58.2366 3
      vertex -13.573 58.2366 0
      vertex -15.073 57.1468 3
    endloop
  endfacet
  facet normal 0 1 0
    outer loop
      vertex -16.9271 57.1468 0
      vertex -16.9271 57.1468 3
      vertex -15.073 57.1468 0
    endloop
  endfacet
  facet normal 0 1 0
    outer loop
      vertex -15.073 57.1468 3
      vertex -15.073 57.1468 0
      vertex -16.9271 57.1468 3
    endloop
  endfacet
  facet normal 0.587785 0.809017 -0
    outer loop
      vertex -2.42705 -1.76335 0
      vertex -2.42705 -1.76335 3
      vertex -0.927048 -2.85316 0
    endloop
  endfacet
  facet normal 0.587785 0.809017 0
    outer loop
      vertex -0.927048 -2.85316 3
      vertex -0.927048 -2.85316 0
      vertex -2.42705 -1.76335 3
    endloop
  endfacet
  facet normal 0.951056 0.309019 -0
    outer loop
      vertex -3 0 0
      vertex -3 0 3
      vertex -2.42705 -1.76335 0
    endloop
  endfacet
  facet normal 0.951056 0.309019 0
    outer loop
      vertex -2.42705 -1.76335 3
      vertex -2.42705 -1.76335 0
      vertex -3 0 3
    endloop
  endfacet
  facet normal 0.951056 -0.309019 0
    outer loop
      vertex -2.42705 1.76335 0
      vertex -2.42705 1.76335 3
      vertex -3 0 0
    endloop
  endfacet
  facet normal 0.951056 -0.309019 0
    outer loop
      vertex -3 0 3
      vertex -3 0 0
      vertex -2.42705 1.76335 3
    endloop
  endfacet
  facet normal 0.587785 -0.809017 0
    outer loop
      vertex -0.927048 2.85316 0
      vertex -0.927048 2.85316 3
      vertex -2.42705 1.76335 0
    endloop
  endfacet
  facet normal 0.587785 -0.809017 0
    outer loop
      vertex -2.42705 1.76335 3
      vertex -2.42705 1.76335 0
      vertex -0.927048 2.85316 3
    endloop
  endfacet
  facet normal 0 -1 0
    outer loop
      vertex 0.927048 2.85316 0
      vertex 0.927048 2.85316 3
      vertex -0.927048 2.85316 0
    endloop
  endfacet
  facet normal 0 -1 0
    outer loop
      vertex -0.927048 2.85316 3
      vertex -0.927048 2.85316 0
      vertex 0.927048 2.85316 3
    endloop
  endfacet
  facet normal -0.587785 -0.809017 0
    outer loop
      vertex 2.42705 1.76335 0
      vertex 2.42705 1.76335 3
      vertex 0.927048 2.85316 0
    endloop
  endfacet
  facet normal -0.587785 -0.809017 -0
    outer loop
      vertex 0.927048 2.85316 3
      vertex 0.927048 2.85316 0
      vertex 2.42705 1.76335 3
    endloop
  endfacet
  facet normal -0.951056 -0.309019 0
    outer loop
      vertex 3 0 0
      vertex 3 0 3
      vertex 2.42705 1.76335 0
    endloop
  endfacet
  facet normal -0.951056 -0.309019 -0
    outer loop
      vertex 2.42705 1.76335 3
      vertex 2.42705 1.76335 0
      vertex 3 0 3
    endloop
  endfacet
  facet normal -0.951056 0.309019 0
    outer loop
      vertex 2.42705 -1.76335 0
      vertex 2.42705 -1.76335 3
      vertex 3 0 0
    endloop
  endfacet
  facet normal -0.951056 0.309019 0
    outer loop
      vertex 3 0 3
      vertex 3 0 0
      vertex 2.42705 -1.76335 3
    endloop
  endfacet
  facet normal -0.587785 0.809017 0
    outer loop
      vertex 0.927048 -2.85316 0
      vertex 0.927048 -2.85316 3
      vertex 2.42705 -1.76335 0
    endloop
  endfacet
  facet normal -0.587785 0.809017 0
    outer loop
      vertex 2.42705 -1.76335 3
      vertex 2.42705 -1.76335 0
      vertex 0.927048 -2.85316 3
    endloop
  endfacet
  facet normal 0 1 0
    outer loop
      vertex -0.927048 -2.85316 0
      vertex -0.927048 -2.85316 3
      vertex 0.927048 -2.85316 0
    endloop
  endfacet
  facet normal 0 1 0
    outer loop
      vertex 0.927048 -2.85316 3
      vertex 0.927048 -2.85316 0
      vertex -0.927048 -2.85316 3
    endloop
  endfacet
  facet normal 0.587785 0.809017 -0
    outer loop
      vertex 6.57294 -1.76335 0
      vertex 6.57294 -1.76335 3
      vertex 8.07294 -2.85316 0
    endloop
  endfacet
  facet normal 0.587785 0.809017 0
    outer loop
      vertex 8.07294 -2.85316 3
      vertex 8.07294 -2.85316 0
      vertex 6.57294 -1.76335 3
    endloop
  endfacet
  facet normal 0.951058 0.309012 -0
    outer loop
      vertex 6 0 0
      vertex 6 0 3
      vertex 6.57294 -1.76335 0
    endloop
  endfacet
  facet normal 0.951058 0.309012 0
    outer loop
      vertex 6.57294 -1.76335 3
      vertex 6.57294 -1.76335 0
      vertex 6 0 3
    endloop
  endfacet
  facet normal 0.951058 -0.309012 0
    outer loop
      vertex 6.57294 1.76335 0
      vertex 6.57294 1.76335 3
      vertex 6 0 0
    endloop
  endfacet
  facet normal 0.951058 -0.309012 0
    outer loop
      vertex 6 0 3
      vertex 6 0 0
      vertex 6.57294 1.76335 3
    endloop
  endfacet
  facet normal 0.587785 -0.809017 0
    outer loop
      vertex 8.07294 2.85316 0
      vertex 8.07294 2.85316 3
      vertex 6.57294 1.76335 0
    endloop
  endfacet
  facet normal 0.587785 -0.809017 0
    outer loop
      vertex 6.57294 1.76335 3
      vertex 6.57294 1.76335 0
      vertex 8.07294 2.85316 3
    endloop
  endfacet
  facet normal 0 -1 0
    outer loop
      vertex 9.92705 2.85316 0
      vertex 9.92705 2.85316 3
      vertex 8.07294 2.85316 0
    endloop
  endfacet
  facet normal 0 -1 0
    outer loop
      vertex 8.07294 2.85316 3
      vertex 8.07294 2.85316 0
      vertex 9.92705 2.85316 3
    endloop
  endfacet
  facet normal -0.587785 -0.809017 0
    outer loop
      vertex 11.427 1.76335 0
      vertex 11.427 1.76335 3
      vertex 9.92705 2.85316 0
    endloop
  endfacet
  facet normal -0.587785 -0.809017 -0
    outer loop
      vertex 9.92705 2.85316 3
      vertex 9.92705 2.85316 0
      vertex 11.427 1.76335 3
    endloop
  endfacet
  facet normal -0.951056 -0.309019 0
    outer loop
      vertex 12 0 0
      vertex 12 0 3
      vertex 11.427 1.76335 0
    endloop
  endfacet
  facet normal -0.951056 -0.309019 -0
    outer loop
      vertex 11.427 1.76335 3
      vertex 11.427 1.76335 0
      vertex 12 0 3
    endloop
  endfacet
  facet normal -0.951056 0.309019 0
    outer loop
      vertex 11.427 -1.76335 0
      vertex 11.427 -1.76335 3
      vertex 12 0 0
    endloop
  endfacet
  facet normal -0.951056 0.309019 0
    outer loop
      vertex 12 0 3
      vertex 12 0 0
      vertex 11.427 -1.76335 3
    endloop
  endfacet
  facet normal -0.587785 0.809017 0
    outer loop
      vertex 9.92705 -2.85316 0
      vertex 9.92705 -2.85316 3
      vertex 11.427 -1.76335 0
    endloop
  endfacet
  facet normal -0.587785 0.809017 0
    outer loop
      vertex 11.427 -1.76335 3
      vertex 11.427 -1.76335 0
      vertex 9.92705 -2.85316 3
    endloop
  endfacet
  facet normal 0 1 0
    outer loop
      vertex 8.07294 -2.85316 0
      vertex 8.07294 -2.85316 3
      vertex 9.92705 -2.85316 0
    endloop
  endfacet
  facet normal 0 1 0
    outer loop
      vertex 9.92705 -2.85316 3
      vertex 9.92705 -2.85316 0
      vertex 8.07294 -2.85316 3
    endloop
  endfacet
endsolid OpenSCAD_Model
